<svg id="Vector_layer" data-name="Vector layer" xmlns="http://www.w3.org/2000/svg" viewBox="0 0 83.8 94.01"><path d="M34.14,77.34c-11-2-10.7-22.85-9.6-31.5.79-4.61,1.12-11.82,5.11-14.78,2,.19.52,3.95.49,5.08-.67,7.74-2.34,16.76.78,24.09,2.49,3.66,6.3.27,7.72-2.55,1.64-2.31,3.74-11,7.63-7.63C52.21,57.22,43.64,77.36,34.14,77.34Z" transform="translate(-1.62 -1.68)"/><path d="M18.11,54.33a6.08,6.08,0,0,1,0-6.93c2.07-1.74,5-2.25,7.34-3.52,2.32-1.05,4.6-2.17,6.91-3.24,1.9-.36,2.5,2.35,2.63,3.77.09,1.82-.09,4.29-1.89,5.24-2.17,1-4.38,1.85-6.62,2.66q-2.93,1-5.89,1.92C19.71,54.42,18.84,55.21,18.11,54.33Z" transform="translate(-1.62 -1.68)"/><path d="M30.74,94.37C10.26,90.31-.82,69.2,2.08,49.47c2.05-14.28,11-26.89,22.1-35.72C38.27,3.23,58.85-3.52,74.79,6.85,87.94,16.47,88,46,79.86,58.76c-4.45,6.36-9.68,2.86-13.46-2-3.35-4.26-4.64-9.55-6.32-14.58-3.15,6.22-.38,18.07-4.77,23.06-2.26,1.13-3.19-2.33-3.31-4,0-2.77.53-5.55-.29-8.29a74.36,74.36,0,0,0-2.84-9.56c-.62-1.87-2.4-5.53-.1-6.76.79.11,1,1.13,1.08,1.8,1,2.32,2,4.62,2.85,7,.23-4.78,4-22.26,10.83-13.71,2.31,3.34,2.89,7.51,4.88,11C73.32,50,76.46,48,77.25,40c.82-6.23.48-13.59-4.37-18.19-21.81-15-55.6,4.77-63.08,27.69-2.47,6.91,0,14.38,4.68,19.74,9.63,11.41,29.43,13.52,42.33,6.86a69.36,69.36,0,0,0,8.9-5.81C68.1,68.75,69.89,72,70.29,74c.77,3.36.7,7.52-1.63,10.26a35.87,35.87,0,0,1-8.91,7C51,96.25,40.38,96.62,30.74,94.37Z" transform="translate(-1.62 -1.68)"/></svg>