<?xml version="1.0" encoding="utf-8"?>
<!-- Generator: Adobe Illustrator 26.0.1, SVG Export Plug-In . SVG Version: 6.00 Build 0)  -->
<svg version="1.1" id="Layer_1" xmlns="http://www.w3.org/2000/svg" xmlns:xlink="http://www.w3.org/1999/xlink" x="0px" y="0px"
	 viewBox="0 0 974.9 611.9" style="enable-background:new 0 0 974.9 611.9;" xml:space="preserve">
<style type="text/css">
	.st0{fill:#3F3D56;}
	.st1{fill:#FF6584;}
	.st2{fill:#E6E6E6;}
	.st3{fill:#72B4CE;}
	.st4{fill:#F2F2F2;}
	.st5{fill:#C5957E;}
	.st6{fill:#2F2E41;}
	.st7{fill:#CCCCCC;}
</style>
<path class="st0" d="M657.2,269.3H0V0h657.2V269.3z M2,267.3h653.2V2H2L2,267.3z"/>
<path class="st1" d="M92.8,102.6H51.5c-2.8-16.3-2.8-33,0-49.2h41.3C88.2,69.5,88.2,86.6,92.8,102.6z"/>
<path class="st2" d="M128.6,123.6h41.3c2.8-16.3,2.8-33,0-49.2h-41.3C133.2,90.5,133.2,107.5,128.6,123.6z"/>
<path class="st2" d="M395.1,133.7h56.1c0.8,0,1.5-0.7,1.4-1.6c0-0.8-0.7-1.4-1.4-1.4h-56.1c-0.8,0-1.5,0.7-1.4,1.6
	C393.7,133,394.3,133.7,395.1,133.7z"/>
<path class="st2" d="M449.8,119.5l8.8,8c1,0.9,3.8,2.8,4.4,4c1.3,2.5-0.1,1.9-2.3,2.8c-5.4,2.2-10.4,5.3-14.8,9.2
	c-1.5,1.3,0.7,3.4,2.1,2.1c4-3.6,8.5-6.4,13.4-8.4c1.8-0.7,5.1-1.1,6-3.2c1-2.6-2.2-4.5-3.8-5.9l-11.7-10.7
	C450.5,116.1,448.4,118.2,449.8,119.5L449.8,119.5z"/>
<path class="st3" d="M80.6,194.6h41.3c2.8-16.3,2.8-33,0-49.2H80.6C85.2,161.5,85.2,178.5,80.6,194.6z"/>
<path class="st3" d="M401.6,98.6h41.3c2.8-16.3,2.8-33,0-49.2h-41.3C406.2,65.5,406.2,82.5,401.6,98.6z"/>
<polygon class="st4" points="270.8,179.5 270.8,58 259.8,55.5 259.8,190.5 342.8,189.7 342.5,178.8 "/>
<path class="st0" d="M352.8,200.7h-100v-161h100V200.7z M254.8,198.7h96v-157h-96V198.7z"/>
<rect x="261.8" y="49.7" class="st0" width="16.2" height="2"/>
<rect x="261.8" y="54.7" class="st0" width="16.2" height="2"/>
<rect x="261.8" y="59.7" class="st0" width="16.2" height="2"/>
<rect x="269.8" y="145.7" class="st0" width="69.2" height="2"/>
<rect x="269.8" y="156.7" class="st0" width="69.2" height="2"/>
<rect x="269.8" y="167.7" class="st0" width="69.2" height="2"/>
<path class="st0" d="M337.8,62.7c-3.9,0-7-3.1-7-7s3.1-7,7-7s7,3.1,7,7l0,0C344.8,59.5,341.7,62.7,337.8,62.7z M337.8,50.7
	c-2.8,0-5,2.2-5,5s2.2,5,5,5s5-2.2,5-5C342.8,52.9,340.6,50.7,337.8,50.7z"/>
<path class="st0" d="M339.8,122.7h-71v-46h71V122.7z M270.8,120.7h67v-42h-67V120.7z"/>
<rect x="303.3" y="58.8" transform="matrix(0.5377 -0.8432 0.8432 0.5377 56.6507 302.6834)" class="st0" width="2" height="81.8"/>
<rect x="263.4" y="98.7" transform="matrix(0.8432 -0.5377 0.5377 0.8432 -5.8666 179.2568)" class="st0" width="81.8" height="2"/>
<polygon class="st4" points="524.8,179.5 524.8,58 513.8,55.5 513.8,190.5 596.8,189.7 596.5,178.8 "/>
<path class="st0" d="M607.8,198.7h-100v-161h100V198.7z M509.8,196.7h96v-157h-96V196.7z"/>
<rect x="516.8" y="47.7" class="st0" width="16.2" height="2"/>
<rect x="516.8" y="52.7" class="st0" width="16.2" height="2"/>
<rect x="516.8" y="57.7" class="st0" width="16.2" height="2"/>
<path class="st0" d="M592.8,60.7c-3.9,0-7-3.1-7-7s3.1-7,7-7s7,3.1,7,7C599.8,57.5,596.7,60.7,592.8,60.7z M592.8,48.7
	c-2.8,0-5,2.2-5,5s2.2,5,5,5s5-2.2,5-5C597.8,50.9,595.6,48.7,592.8,48.7z"/>
<path class="st0" d="M594.8,120.7h-71v-46h71V120.7z M525.8,118.7h67v-42h-67V118.7z"/>
<rect x="558.3" y="56.8" transform="matrix(0.5377 -0.8432 0.8432 0.5377 176.232 516.7624)" class="st0" width="2" height="81.8"/>
<rect x="518.4" y="96.7" transform="matrix(0.8432 -0.5376 0.5376 0.8432 35.1796 315.9918)" class="st0" width="81.8" height="2"/>
<path class="st0" d="M594.8,180.7h-71v-46h71V180.7z M525.8,178.7h67v-42h-67V178.7z"/>
<rect x="558.3" y="116.8" transform="matrix(0.5377 -0.8432 0.8432 0.5377 125.6426 544.5024)" class="st0" width="2" height="81.8"/>
<rect x="518.4" y="156.7" transform="matrix(0.8432 -0.5376 0.5376 0.8432 2.9254 325.3987)" class="st0" width="81.8" height="2"/>
<path class="st3" d="M287.6,231.6h41.3c2.8-16.3,2.8-33,0-49.2h-41.3C292.2,198.5,292.2,215.5,287.6,231.6z"/>
<ellipse transform="matrix(0.8775 -0.4797 0.4797 0.8775 1.1773 401.0247)" class="st5" cx="785.4" cy="198.2" rx="29.3" ry="29.3"/>
<circle class="st6" cx="831.3" cy="161.9" r="25.9"/>
<path class="st6" d="M853.6,183.3c-11.6,8.4-27.8,5.8-36.2-5.8c-1.7-2.4-3-5-3.8-7.8c1.8,14.2,14.7,24.2,28.9,22.5
	c14.2-1.8,24.2-14.7,22.5-28.9c-0.2-1.4-0.5-2.8-0.9-4.2C865.3,168.5,861.3,177.8,853.6,183.3z"/>
<path class="st6" d="M751.5,183.3c4.5-8.1,6.2-11.5,12.1-16.4c5.2-4.4,11.5-5.6,16.6-1.5c15.5-6.7,33.5,0.4,40.3,16
	s-0.4,33.5-16,40.3s-33.5-0.4-40.3-16c-1.7-3.8-2.5-8-2.5-12.1c0-1.2,0.1-2.3,0.2-3.5C757.4,189.5,755.9,184,751.5,183.3z"/>
<polygon class="st5" points="714.5,597.7 701.2,593.8 709.8,540.3 729.5,546.1 "/>
<path class="st6" d="M690.8,586.6l27.8,8.1l0,0l-4.7,16.3l0,0l-42.1-12.2l0,0l0.6-2C674.6,588.9,682.9,584.4,690.8,586.6z"/>
<polygon class="st5" points="852.9,598 838.9,598 832.3,544.3 852.9,544.3 "/>
<path class="st6" d="M826.9,594h28.9l0,0V611l0,0h-43.8l0,0v-2C812.1,600.7,818.7,594,826.9,594L826.9,594z"/>
<path class="st5" d="M820.1,410.9c-4-4.9-3.3-12.1,1.5-16.1c0.5-0.4,1.1-0.8,1.7-1.1l-7.2-40l19.4,8.3l3.9,36.7
	c2.7,5.7,0.3,12.6-5.4,15.3C829.2,416.3,823.4,415,820.1,410.9z"/>
<path class="st3" d="M830.5,315.1L807.7,246c-0.5-0.8-6.1-9.7-18.5-5.9c-2.8,0.8-5.1,2.7-6.4,5.2c-3.6,6.9-0.2,17.6-0.2,17.7
	l28,62.8l0,0.1l8.9,64.5l19.1-3.9L830.5,315.1z"/>
<path class="st6" d="M679.1,571l34.3-105.1l39.8-90.9l-0.6-44.1l47.2-11l5.5,18.5c31.8,21,21.3,61.3,20.6,64L873.6,579l-52.2,5.8
	l-35-167.3l-32.3,68l-22.8,101.7L679.1,571z"/>
<path class="st3" d="M749.2,293.9c-9.4-18-2.6-24.8,7.7-35.2c4.2-4.1,8.1-8.4,11.8-13c16-20.6,34.6-10.5,34.7-10.4l0.1,0.1l4.6,6.9
	c15.1,15.2-7.8,57-9.5,60.1l1.1,29.9l-48.7,4.6L749.2,293.9z"/>
<path class="st5" d="M767.7,409.3c-2.7-5.7-0.2-12.5,5.6-15.2c0.6-0.3,1.2-0.5,1.9-0.7l3.1-40.5l16.7,12.9l-5.5,36.5
	c1.2,6.2-2.9,12.3-9.1,13.5C775.2,416.8,769.9,414.1,767.7,409.3z"/>
<path class="st3" d="M771.3,390.3l7.9-65.6l-11.2-67.9c0-0.5-0.6-11.7,4.9-17.8c2.1-2.3,5.1-3.7,8.2-3.7c14-0.6,17.4,11.1,17.4,11.2
	l4.6,72.9l-10.3,72.1L771.3,390.3z"/>
<path class="st7" d="M592.9,611.9h381c0.6,0,1-0.4,1-1s-0.4-1-1-1h-381c-0.6,0-1,0.4-1,1S592.4,611.9,592.9,611.9z"/>
</svg>
